<?xml version="1.0" ?><svg enable-background="new 0 0 211.4051 204.0017" id="twiter" version="1.1" viewBox="0 0 211.4051 204.0017" xml:space="preserve" xmlns="http://www.w3.org/2000/svg" xmlns:xlink="http://www.w3.org/1999/xlink"><path d="M209.6471,44.9651c-1.416-0.959-3.291-0.9102-4.6582,0.123c-1.7949,1.3613-4.7168,2.4414-7.8613,3.2734  c8.1895-9.1758,8.3652-15.3027,8.2773-16.7129c-0.0918-1.4551-0.9688-2.7461-2.2891-3.3672  c-1.3242-0.625-2.875-0.4727-4.0547,0.3828c-9.2109,6.6953-18.3867,8.1094-23.8438,8.252  c-8.375-8.0137-19.2539-12.4062-30.8281-12.4062c-24.7832,0-44.9453,20.4316-44.9453,45.5449c0,2.1582,0.1504,4.3164,0.4512,6.4512  C56.944,76.0198,22.0651,34.8655,21.7057,34.4358c-0.8379-1.002-2.1133-1.5371-3.416-1.4219  c-1.3027,0.1133-2.4688,0.8535-3.1211,1.9863c-12.3613,21.4434-4.0898,40.2773,3.4707,51.0605  c-1.3379-0.7129-2.4219-1.416-3.0684-1.8926c-1.2012-0.8945-2.8047-1.043-4.1543-0.3809c-1.3477,0.6641-2.209,2.0234-2.2344,3.5254  c-0.334,20.4316,9.502,32.1367,18.748,38.6074c-1.2324-0.1172-2.4844,0.3418-3.3398,1.2715  c-0.9609,1.0449-1.2988,2.5195-0.8848,3.877c6.3867,20.9082,22.0723,28.0117,32.0527,30.4219  c-20.5215,15.9746-50.7188,10.834-51.0527,10.7754c-1.8223-0.3223-3.625,0.6367-4.3672,2.3281  c-0.7422,1.6895-0.2344,3.6699,1.2344,4.7891c21.6602,16.5312,47.5664,20.1934,66.2812,20.1934  c14.1543-0.002,24.1992-2.0977,25.1602-2.3066c94.791-22.4629,97.459-109.291,97.2422-123.5215  c17.7949-16.5488,20.5762-22.8516,21.0059-24.4102C211.7154,47.6838,211.067,45.926,209.6471,44.9651z" fill="#1C71DA"/><path d="M183.4947,69.1057c-0.8906,0.8203-1.3613,2.002-1.2812,3.2109c0.252,3.8418,5.0996,94.3867-90.9688,117.1523  c-0.4355,0.0918-38.623,8.0605-71.7285-8.3398c13.9863-0.3887,34.043-4.0527,48.0156-19.7402  c1.0547-1.1816,1.3105-2.875,0.6543-4.3164c-0.6484-1.4277-2.0742-2.3438-3.6406-2.3438c-0.0137,0-0.0273,0-0.041,0  c-0.1992,0.127-21.2051-0.0234-30.8203-20.0059c3.873,0.2188,8.6484-0.0195,12.4512-1.7715  c1.5664-0.7227,2.4922-2.3672,2.2988-4.082c-0.1934-1.7129-1.4629-3.1094-3.1504-3.4648  c-1.0762-0.2266-24.459-5.4551-27.7305-30.9648c3.5488,1.5508,8.0859,2.8203,12.5781,2.1348  c1.543-0.2324,2.8066-1.3418,3.2422-2.8398s-0.041-3.1152-1.2188-4.1387c-1-0.8711-22.9609-20.3887-12.5488-45.5586  c11.3027,11.8594,44.7852,42.6816,85.3477,40.3516c1.1895-0.0684,2.2871-0.666,2.9941-1.627  c0.7051-0.9609,0.9453-2.1855,0.6543-3.3418c-0.7676-3.0586-1.1582-6.2109-1.1582-9.3652c0-20.7031,16.5742-37.5449,36.9453-37.5449  c9.9648,0,19.3125,3.9766,26.3164,11.1992c0.7363,0.7598,1.7461,1.1973,2.8027,1.2148c4.2383,0.0586,11.209-0.4395,19.0801-3.5957  c-2.2715,2.8262-5.6074,6.2168-10.5156,10.0703c-1.3867,1.0898-1.8965,2.9609-1.2539,4.6035  c0.6445,1.6465,2.3066,2.6855,4.0449,2.5293c0.9316-0.0742,5.6855-0.4941,11.0566-1.6562  C192.9947,60.0315,188.983,64.0569,183.4947,69.1057z" fill="#5CB0FF"/><path d="M179.8777,204.0012c-1.0239,0-2.0474-0.3906-2.8286-1.1714c-1.562-1.5625-1.562-4.0947,0-5.6572  l14.1421-14.1421c1.5625-1.5615,4.0947-1.5615,5.6572,0c1.562,1.5625,1.562,4.0947,0,5.6572l-14.1421,14.1421  C181.9251,203.6106,180.9016,204.0012,179.8777,204.0012z" fill="#FF5D5D"/><path d="M194.0198,204.0017c-1.0239,0-2.0474-0.3906-2.8286-1.1714l-14.1421-14.1426  c-1.562-1.5625-1.562-4.0952,0-5.6572c1.5635-1.5615,4.0957-1.5605,5.6572,0l14.1421,14.1426c1.562,1.5625,1.562,4.0952,0,5.6572  C196.0672,203.6111,195.0432,204.0017,194.0198,204.0017z" fill="#FF5D5D"/><path d="M101.8777,168.0012c-7.7197,0-14-6.2803-14-14s6.2803-14,14-14s14,6.2803,14,14  S109.5974,168.0012,101.8777,168.0012z M101.8777,148.0012c-3.3086,0-6,2.6914-6,6s2.6914,6,6,6s6-2.6914,6-6  S105.1863,148.0012,101.8777,148.0012z" fill="#00D40B"/><path d="M67.1912,30.6272L67.1912,30.6272c-1.061,0-2.0781-0.4214-2.8286-1.1719l-11.3135-11.314  c-1.562-1.562-1.562-4.0942,0-5.6567L64.3626,1.1711c1.5625-1.5615,4.0952-1.5615,5.6567,0l11.314,11.3135  c0.7505,0.7505,1.1719,1.7676,1.1719,2.8286s-0.4214,2.0781-1.1714,2.8286l-11.314,11.314  C69.2693,30.2058,68.2522,30.6272,67.1912,30.6272z M61.5344,15.3132l5.6567,5.6572l5.6572-5.6572l-5.6572-5.6567L61.5344,15.3132z" fill="#FFC504"/></svg>